<?xml version="1.0" encoding="UTF-8"?>
<svg id="Layer_2" data-name="Layer 2" xmlns="http://www.w3.org/2000/svg" viewBox="0 0 430.87 367.18">
  <defs>
    <style>
      
       .cls-1 { fill: #ffffff; stroke-width: 0px; }
      
    </style>
  </defs>
  <g id="Layer_1-2" data-name="Layer 1">
    <g>
      <path class="cls-1" d="M334.8,163.85c-5.3,5.4-11.54,8.18-19.12,8.13-10.64-.07-21.28.1-31.91-.05-14.89-.21-24.54-9.84-24.79-24.77-.17-10.63,0-21.27-.05-31.9-.03-7.57,2.79-13.76,8.16-19.1,19.91-19.81,39.7-39.74,59.52-59.63,1.14-1.15,2.22-2.36,4.35-4.62h-6.88c-93.91,0-187.82,0-281.74,0-21.81,0-36.34,11.44-41.63,32.63-.11.45-.47.85-.72,1.27v219.41c2.44,9.09,6.1,17.48,13.45,23.84,8.61,7.45,18.66,10.64,29.91,10.01,3.27-.18,5.02.91,6.62,3.78,7.11,12.76,14.46,25.38,21.79,38.02,4.87,8.39,11.25,8.42,16.09.07,7.16-12.35,14.38-24.67,21.27-37.17,1.93-3.49,4.07-4.74,8.09-4.73,68.81.14,137.63.1,206.44.1,26.99,0,43.5-16.47,43.5-43.41,0-46.02,0-92.05,0-138.07v-5.79c-1.73,1.55-2.81,2.45-3.8,3.43-9.53,9.5-19.12,18.96-28.55,28.56ZM64.48,109.84c.81-2.5,4.21-5.25,6.91-5.81,4.63-.96,9.59-.31,14.41-.31,36.41,0,72.82,0,109.24,0,1.33,0,2.66-.05,3.99.02,5.1.26,8.45,3.42,8.45,7.95,0,4.51-3.35,7.87-8.45,7.93-10.14.13-20.28.05-30.43.05-11.14,0-22.28,0-33.42,0-20.28,0-40.57.05-60.85-.07-2.39-.01-5.62-.21-6.94-1.69-1.84-2.06-3.63-5.85-2.91-8.08ZM207.46,176.05c-.31,4.3-3.57,7.32-8.47,7.41-7.31.13-14.63.04-21.95.04-34.25,0-68.5.06-102.75-.11-2.76-.01-6.34-.85-8.03-2.69-1.62-1.77-2.11-5.52-1.57-8.07.82-3.83,4.32-5.1,8.17-5.09,13.63.03,27.27,0,40.9,0,7.32,0,14.63,0,21.95,0,20.78,0,41.57-.03,62.35.02,6,.01,9.75,3.51,9.4,8.49ZM295.47,247.28c-1.49.13-2.99.05-4.49.05-35.75,0-71.5,0-107.25,0s-72.16,0-108.24,0c-1.66,0-3.37.16-4.97-.18-4.03-.87-6.51-3.45-6.57-7.63-.06-4.42,2.46-7.12,6.74-7.98,1.6-.32,3.31-.15,4.97-.15,72,0,143.99,0,215.99,0,1.33,0,2.67-.07,3.99.05,4.44.43,7.53,3.61,7.62,7.76.09,4.33-3.1,7.7-7.79,8.1Z"/>
      <path class="cls-1" d="M407.23,1.16c-1.08-.3-2.11-.77-3.17-1.16h-9.98c-6.12,3.42-13.35,5.72-18.19,10.45-32.7,31.93-64.93,64.33-97.13,96.77-2.09,2.1-3.55,5.72-3.68,8.7-.45,10.12-.25,20.26-.14,30.4.07,6.85,2.88,9.6,9.78,9.67,9.47.09,18.95-.15,28.42.1,4.84.13,8.46-1.39,11.9-4.87,28.2-28.44,56.56-56.73,84.85-85.07,4.34-4.35,8.86-8.56,12.9-13.18,15.71-17.98,7.42-45.35-15.56-51.81Z"/>
    </g>
  </g>
</svg>